<svg width="32" height="32.000001" xmlns="http://www.w3.org/2000/svg">

 <metadata id="metadata4249">image/svg+xml</metadata>
 <g>
  <title>background</title>
  <rect fill="none" id="canvas_background" height="402" width="582" y="-1" x="-1"/>
 </g>
 <g>
  <title>Layer 1</title>
  <g id="layer1">
   <g id="g4373">
    <path clip-rule="nonzero" fill="#ffffff" fill-rule="evenodd" stroke-width="2" stroke-linecap="round" stroke-linejoin="round" stroke-miterlimit="4" stroke-dashoffset="0" id="path4329" d="m15.98438,1.999117a1.0001,1.0001 0 0 0 -0.98438,1.0157l0,25.9707a1.0001,1.0001 0 1 0 2,0l0,-25.9707a1.0001,1.0001 0 0 0 -1.01562,-1.0157z"/>
    <path clip-rule="nonzero" fill="#ffffff" fill-rule="evenodd" stroke-width="2" stroke-linecap="round" stroke-linejoin="round" stroke-miterlimit="4" stroke-dashoffset="0" id="path4331" d="m13.01758,3.006917a1.0001,1.0001 0 0 0 -0.55274,1.8379l2.97657,2a1.0001,1.0001 0 0 0 1.11718,0l2.97657,-2a1.0005,1.0005 0 1 0 -1.11719,-1.6601l-2.41797,1.625l-2.41797,-1.625a1.0001,1.0001 0 0 0 -0.56445,-0.1778z"/>
    <path clip-rule="nonzero" fill="#ffffff" fill-rule="evenodd" stroke-width="2" stroke-linecap="round" stroke-linejoin="round" stroke-miterlimit="4" stroke-dashoffset="0" id="path4333" d="m15.99219,24.977617a1.0001,1.0001 0 0 0 -0.55078,0.17l-2.97657,2.0019a1.00055,1.00055 0 1 0 1.11719,1.6602l2.41797,-1.627l2.41797,1.627a1.00055,1.00055 0 1 0 1.11719,-1.6602l-2.97657,-2.0019a1.0001,1.0001 0 0 0 -0.5664,-0.17z"/>
    <path clip-rule="nonzero" fill="#ffffff" fill-rule="evenodd" stroke-width="2" stroke-linecap="round" stroke-linejoin="round" stroke-miterlimit="4" stroke-dashoffset="0" id="path4337" d="m27.28906,8.506917a1.0001,1.0001 0 0 0 -0.54297,0.1407l-22.49218,12.9863a1.0001,1.0001 0 1 0 1,1.7305l22.49218,-12.9844a1.0001,1.0001 0 0 0 -0.45703,-1.8731z"/>
    <path clip-rule="nonzero" fill="#ffffff" fill-rule="evenodd" stroke-width="2" stroke-linecap="round" stroke-linejoin="round" stroke-miterlimit="4" stroke-dashoffset="0" id="path4339" d="m24.8418,6.417117a1.0001,1.0001 0 0 0 -0.95117,0.9453l-0.24415,3.5781a1.0001,1.0001 0 0 0 0.5586,0.9668l3.2207,1.5782a1.00017,1.00017 0 1 0 0.87891,-1.7969l-2.61719,-1.2813l0.19922,-2.9082a1.0001,1.0001 0 0 0 -1.04492,-1.082z"/>
    <path clip-rule="nonzero" fill="#ffffff" fill-rule="evenodd" stroke-width="2" stroke-linecap="round" stroke-linejoin="round" stroke-miterlimit="4" stroke-dashoffset="0" id="path4341" d="m4.0918,18.407317a1.0001,1.0001 0 0 0 -0.39649,1.9043l2.61719,1.2813l-0.19922,2.9082a1.00038,1.00038 0 1 0 1.9961,0.1367l0.24414,-3.5781a1.0001,1.0001 0 0 0 -0.5586,-0.9668l-3.2207,-1.5781a1.0001,1.0001 0 0 0 -0.48242,-0.1075z"/>
    <path clip-rule="nonzero" fill="#ffffff" fill-rule="evenodd" stroke-width="2" stroke-linecap="round" stroke-linejoin="round" stroke-miterlimit="4" stroke-dashoffset="0" id="path4345" d="m4.67969,8.495217a1.0001,1.0001 0 0 0 -0.42578,1.8711l22.49218,12.9863a1.00015,1.00015 0 1 0 1,-1.7324l-22.49218,-12.9863a1.0001,1.0001 0 0 0 -0.57422,-0.1387z"/>
    <path clip-rule="nonzero" fill="#ffffff" fill-rule="evenodd" stroke-width="2" stroke-linecap="round" stroke-linejoin="round" stroke-miterlimit="4" stroke-dashoffset="0" id="path4347" d="m27.87891,18.407317a1.0001,1.0001 0 0 0 -0.45313,0.1075l-3.2207,1.5781a1.0001,1.0001 0 0 0 -0.5586,0.9668l0.24415,3.5781a1.00038,1.00038 0 1 0 1.99609,-0.1367l-0.19922,-2.9082l2.61719,-1.2813a1.0001,1.0001 0 0 0 -0.42578,-1.9043z"/>
    <path clip-rule="nonzero" fill="#ffffff" fill-rule="evenodd" stroke-width="2" stroke-linecap="round" stroke-linejoin="round" stroke-miterlimit="4" stroke-dashoffset="0" id="path4349" d="m7.12695,6.417117a1.0001,1.0001 0 0 0 -1.01367,1.082l0.19922,2.9082l-2.61719,1.2813a1.00017,1.00017 0 1 0 0.87891,1.7969l3.2207,-1.5782a1.0001,1.0001 0 0 0 0.5586,-0.9668l-0.24415,-3.5781a1.0001,1.0001 0 0 0 -0.98242,-0.9453z"/>
    <path clip-rule="nonzero" fill="#ffffff" fill-rule="nonzero" stroke-width="1.049487" stroke-linecap="round" stroke-linejoin="round" stroke-miterlimit="4" stroke-dashoffset="0" id="path4351" d="m20.32408,8.049117a1.00146,0.99874 0 0 0 -0.86688,0.1531l-3.45642,2.5243l-3.45804,-2.5249a1.00146,0.99874 0 0 0 -1.58495,0.9156l0.46091,4.2445l-3.92029,1.7232a1.00146,0.99874 0 0 0 0.00262,1.8285l3.91994,1.7249l-0.4658,4.2468a1.00146,0.99874 0 0 0 1.58753,0.9131l3.45642,-2.5243l3.45804,2.5249a1.00146,0.99874 0 0 0 1.58495,-0.9157l-0.46091,-4.2445l3.92028,-1.7231a1.00146,0.99874 0 0 0 -0.0026,-1.8285l-3.91994,-1.7249l0.4658,-4.2469a1.00146,0.99874 0 0 0 -0.72064,-1.0661l-0.00002,0zm-1.51701,3.1042l-0.29906,2.7215a1.00146,0.99874 0 0 0 0.59395,1.0207l2.51189,1.1061l-2.51119,1.1029a1.00146,0.99874 0 0 0 -0.59135,1.0234l0.29852,2.7234l-2.21932,-1.6205a1.00146,0.99874 0 0 0 -1.18071,-0.0001l-2.21698,1.6164l0.29907,-2.7216a1.00146,0.99874 0 0 0 -0.594,-1.0205l-2.51184,-1.1062l2.51114,-1.1028a1.00146,0.99874 0 0 0 0.5914,-1.0235l-0.29852,-2.7234l2.21932,1.6205a1.00146,0.99874 0 0 0 1.18071,0.0001l2.21697,-1.6164z"/>
   </g>
  </g>
 </g>
</svg>